<svg id="svg" version="1.1" xmlns="http://www.w3.org/2000/svg" xmlns:xlink="http://www.w3.org/1999/xlink" width="400" height="274.33295753476136" viewBox="0, 0, 400,274.33295753476136"><g id="svgg"><path id="path0" d="M58.250 141.525 C 52.658 141.597,41.896 141.736,34.333 141.833 C 13.411 142.101,12.208 142.141,12.109 142.568 C 12.020 142.957,11.080 152.765,9.921 165.417 C 9.501 170.000,8.933 176.142,8.659 179.066 C 8.385 181.991,8.187 184.409,8.219 184.441 C 8.251 184.473,9.134 183.915,10.180 183.201 C 14.143 180.498,17.336 178.327,19.833 176.639 C 21.254 175.679,22.904 174.555,23.500 174.140 C 24.096 173.726,26.083 172.375,27.917 171.138 C 33.833 167.145,37.024 164.988,39.833 163.083 C 45.884 158.980,50.396 155.950,61.000 148.869 C 67.096 144.798,72.115 141.437,72.153 141.400 C 72.191 141.363,71.366 141.347,70.319 141.363 C 69.273 141.380,63.842 141.453,58.250 141.525 M133.250 211.537 C 132.975 211.629,132.225 211.893,131.583 212.123 C 130.942 212.353,129.779 212.758,129.000 213.024 C 128.221 213.289,127.433 213.576,127.250 213.660 C 126.129 214.177,124.499 214.833,124.339 214.833 C 124.161 214.833,121.910 215.821,121.294 216.170 C 121.135 216.260,120.891 216.333,120.752 216.333 C 120.614 216.333,119.817 216.671,118.982 217.083 C 118.147 217.496,117.363 217.833,117.240 217.833 C 117.117 217.833,116.465 218.123,115.792 218.478 C 115.118 218.833,114.388 219.180,114.168 219.249 C 112.737 219.704,95.222 228.457,93.462 229.597 C 93.120 229.819,92.753 230.000,92.647 230.000 C 92.541 230.000,92.070 230.238,91.602 230.529 C 91.133 230.820,90.225 231.336,89.583 231.675 C 88.942 232.015,87.779 232.651,87.000 233.088 C 86.221 233.526,85.021 234.183,84.333 234.549 C 83.646 234.915,82.971 235.307,82.833 235.420 C 82.696 235.533,81.983 235.946,81.250 236.337 C 80.517 236.728,79.738 237.187,79.519 237.357 C 79.301 237.527,79.038 237.667,78.936 237.667 C 78.834 237.667,78.237 238.005,77.610 238.417 C 76.982 238.829,76.398 239.167,76.312 239.167 C 76.152 239.167,75.318 239.659,75.167 239.843 C 75.121 239.899,74.558 240.228,73.917 240.575 C 73.275 240.922,72.511 241.384,72.220 241.603 C 71.928 241.821,71.495 242.074,71.257 242.164 C 71.019 242.254,70.393 242.615,69.865 242.966 C 69.337 243.317,68.757 243.660,68.577 243.729 C 68.397 243.798,67.762 244.178,67.167 244.574 C 66.008 245.342,64.864 246.041,63.867 246.589 C 63.528 246.776,62.776 247.245,62.197 247.631 C 61.617 248.017,61.088 248.333,61.021 248.333 C 60.953 248.333,60.419 248.671,59.833 249.083 C 59.248 249.496,58.709 249.833,58.636 249.833 C 58.563 249.833,58.031 250.157,57.454 250.552 C 56.876 250.947,56.285 251.316,56.140 251.372 C 55.994 251.428,55.391 251.798,54.799 252.195 C 53.664 252.956,52.413 253.749,51.686 254.167 C 51.177 254.460,49.214 255.731,47.664 256.771 C 47.067 257.172,46.524 257.500,46.457 257.500 C 46.297 257.500,44.600 258.708,44.528 258.873 C 44.497 258.943,44.393 259.000,44.296 259.000 C 44.199 259.000,43.137 259.656,41.935 260.458 C 40.733 261.260,39.602 261.977,39.421 262.050 C 39.240 262.123,38.708 262.480,38.239 262.842 C 37.770 263.204,37.337 263.500,37.277 263.500 C 37.126 263.500,35.430 264.716,35.361 264.873 C 35.331 264.943,35.205 265.000,35.082 265.000 C 34.959 265.000,34.534 265.247,34.138 265.548 C 33.326 266.164,30.637 267.951,30.000 268.296 C 29.771 268.420,29.433 268.657,29.250 268.822 C 29.067 268.987,28.485 269.393,27.958 269.725 C 27.431 270.058,27.000 270.405,27.000 270.498 C 27.000 270.611,42.363 270.667,73.906 270.667 L 120.813 270.667 120.921 269.875 C 120.981 269.440,121.398 267.577,121.848 265.735 C 122.298 263.894,122.668 262.244,122.670 262.068 C 122.671 261.893,123.009 260.401,123.420 258.752 C 123.831 257.103,124.165 255.641,124.162 255.502 C 124.160 255.363,124.493 253.825,124.901 252.083 C 125.597 249.119,126.004 247.328,127.927 238.792 C 128.345 236.935,129.053 233.804,129.500 231.833 C 129.947 229.862,130.660 226.713,131.083 224.833 C 131.507 222.954,132.189 219.992,132.599 218.250 C 133.009 216.508,133.344 214.933,133.343 214.750 C 133.342 214.567,133.489 213.859,133.671 213.178 C 134.019 211.867,134.080 211.322,133.875 211.351 C 133.806 211.361,133.525 211.444,133.250 211.537 " stroke="none" fill="#04539b" fill-rule="evenodd"></path><path id="path1" d="M395.828 0.256 C 395.712 0.397,394.877 1.047,393.975 1.701 C 393.072 2.356,392.333 2.953,392.333 3.029 C 392.333 3.105,392.248 3.167,392.144 3.167 C 391.955 3.167,391.021 3.868,389.204 5.374 C 388.679 5.808,388.162 6.164,388.056 6.165 C 387.949 6.166,387.836 6.226,387.806 6.299 C 387.775 6.372,387.075 6.950,386.250 7.583 C 385.425 8.216,384.675 8.795,384.583 8.870 C 384.492 8.945,384.091 9.248,383.693 9.545 C 383.296 9.841,382.727 10.271,382.430 10.500 C 380.193 12.227,378.559 13.474,378.111 13.795 C 377.821 14.003,377.358 14.355,377.083 14.578 C 376.808 14.800,376.345 15.155,376.055 15.366 C 374.372 16.588,372.500 18.079,372.500 18.197 C 372.500 18.272,372.402 18.333,372.282 18.333 C 372.162 18.333,371.668 18.671,371.185 19.083 C 370.702 19.496,370.255 19.833,370.193 19.833 C 370.131 19.833,369.878 20.021,369.630 20.250 C 369.383 20.480,368.934 20.836,368.632 21.043 C 367.555 21.779,364.745 23.954,364.521 24.225 C 364.395 24.376,364.199 24.500,364.086 24.500 C 363.972 24.500,363.700 24.678,363.481 24.895 C 363.262 25.113,362.821 25.470,362.500 25.690 C 362.179 25.910,361.179 26.651,360.278 27.337 C 359.376 28.022,358.401 28.756,358.111 28.967 C 357.821 29.178,357.307 29.581,356.968 29.863 C 356.630 30.145,356.209 30.460,356.033 30.563 C 355.857 30.666,354.980 31.313,354.084 32.000 C 353.188 32.688,352.295 33.339,352.099 33.449 C 351.904 33.558,351.408 33.951,350.997 34.321 C 350.586 34.692,350.198 34.996,350.135 34.998 C 350.044 35.000,347.006 37.244,346.254 37.865 C 346.025 38.054,345.127 38.711,342.837 40.363 C 341.785 41.122,340.687 41.951,340.398 42.205 C 340.109 42.459,339.815 42.667,339.745 42.667 C 339.675 42.667,339.274 42.948,338.855 43.292 C 338.436 43.635,337.824 44.104,337.495 44.333 C 337.167 44.563,336.281 45.200,335.527 45.750 C 334.774 46.300,333.915 46.922,333.620 47.133 C 333.325 47.343,332.827 47.718,332.513 47.966 C 331.715 48.597,329.906 49.902,328.917 50.562 C 328.458 50.868,327.940 51.279,327.766 51.476 C 327.591 51.672,327.366 51.833,327.266 51.834 C 327.101 51.834,326.858 52.013,325.738 52.959 C 325.549 53.119,325.183 53.362,324.925 53.498 C 324.667 53.635,324.132 54.032,323.735 54.381 C 323.339 54.730,322.974 54.994,322.926 54.966 C 322.877 54.939,322.422 55.248,321.914 55.654 C 321.406 56.059,320.849 56.471,320.677 56.570 C 320.072 56.916,317.580 58.733,317.186 59.115 C 316.967 59.327,316.699 59.500,316.591 59.500 C 316.482 59.500,316.099 59.748,315.738 60.052 C 315.378 60.356,314.540 60.966,313.875 61.408 C 313.210 61.849,312.667 62.276,312.667 62.356 C 312.667 62.435,312.551 62.500,312.409 62.500 C 312.267 62.500,311.979 62.669,311.768 62.875 C 311.324 63.309,310.392 64.000,310.250 64.000 C 310.163 64.000,308.378 65.285,308.167 65.499 C 308.121 65.546,307.887 65.685,307.648 65.808 C 307.408 65.931,307.026 66.204,306.800 66.415 C 306.573 66.625,306.131 66.929,305.819 67.091 C 305.506 67.252,305.175 67.476,305.083 67.588 C 304.992 67.700,303.979 68.415,302.833 69.178 C 301.688 69.940,300.455 70.812,300.095 71.116 C 299.735 71.419,299.373 71.667,299.291 71.667 C 299.209 71.667,298.716 71.987,298.196 72.379 C 297.676 72.770,297.056 73.189,296.818 73.310 C 296.580 73.430,296.098 73.784,295.746 74.098 C 295.394 74.411,295.051 74.667,294.983 74.667 C 294.838 74.667,292.450 76.276,291.235 77.193 C 290.768 77.545,290.329 77.833,290.259 77.833 C 290.105 77.833,288.773 78.861,288.694 79.040 C 288.664 79.110,288.550 79.167,288.442 79.167 C 288.334 79.167,287.842 79.448,287.348 79.792 C 286.854 80.135,286.210 80.567,285.915 80.750 C 285.621 80.933,284.609 81.608,283.666 82.250 C 282.723 82.892,281.658 83.585,281.298 83.791 C 280.939 83.997,280.538 84.272,280.408 84.401 C 280.278 84.531,279.535 85.028,278.756 85.506 C 277.977 85.983,277.255 86.477,277.150 86.604 C 277.045 86.730,276.885 86.833,276.795 86.833 C 276.704 86.833,276.114 87.208,275.484 87.667 C 274.854 88.125,274.270 88.500,274.186 88.500 C 274.102 88.500,273.584 88.838,273.035 89.250 C 272.487 89.663,271.983 90.000,271.917 90.000 C 271.851 90.000,271.314 90.337,270.724 90.750 C 270.133 91.162,269.587 91.500,269.509 91.500 C 269.431 91.500,268.985 91.781,268.517 92.125 C 268.050 92.469,267.219 93.006,266.671 93.318 C 266.122 93.630,265.525 94.024,265.344 94.193 C 265.162 94.362,264.930 94.500,264.829 94.500 C 264.727 94.500,264.170 94.838,263.592 95.250 C 263.014 95.663,262.492 96.000,262.432 96.000 C 262.372 96.000,261.810 96.337,261.184 96.750 C 260.558 97.162,259.999 97.500,259.943 97.500 C 259.886 97.500,259.282 97.875,258.599 98.333 C 257.917 98.792,257.311 99.167,257.254 99.167 C 257.196 99.167,256.707 99.467,256.167 99.833 C 255.627 100.200,255.125 100.500,255.051 100.500 C 254.977 100.501,254.403 100.838,253.776 101.250 C 253.149 101.663,252.583 102.000,252.518 102.000 C 252.454 102.000,251.880 102.345,251.242 102.766 C 250.605 103.187,249.917 103.597,249.713 103.677 C 249.509 103.757,248.963 104.082,248.500 104.401 C 248.037 104.720,247.491 105.033,247.287 105.098 C 247.083 105.162,246.421 105.542,245.815 105.941 C 245.208 106.340,244.642 106.667,244.555 106.667 C 244.469 106.667,244.031 106.900,243.582 107.185 C 243.133 107.470,242.274 107.968,241.674 108.293 C 241.074 108.618,239.886 109.266,239.033 109.733 C 237.099 110.794,235.374 111.715,233.333 112.775 C 232.463 113.228,231.525 113.722,231.250 113.873 C 230.800 114.120,230.254 114.396,228.083 115.469 C 227.717 115.651,226.704 116.134,225.833 116.544 C 224.963 116.953,223.606 117.598,222.818 117.976 C 222.031 118.353,221.094 118.768,220.735 118.897 C 220.377 119.026,219.633 119.355,219.083 119.629 C 218.533 119.902,217.896 120.181,217.667 120.248 C 217.267 120.366,215.521 121.085,214.364 121.609 C 214.060 121.747,213.634 121.892,213.417 121.931 C 213.200 121.970,212.298 122.298,211.412 122.660 C 210.527 123.022,209.565 123.356,209.276 123.403 C 208.987 123.450,208.225 123.671,207.583 123.894 C 205.740 124.535,202.657 125.269,199.333 125.858 C 196.328 126.391,191.301 125.959,190.336 125.085 C 188.336 123.275,188.097 117.360,189.492 104.167 C 190.693 92.801,190.641 91.429,188.931 89.266 C 186.415 86.084,179.210 85.164,169.241 86.750 C 167.828 86.975,167.396 87.119,165.250 88.081 C 164.792 88.286,164.229 88.510,164.000 88.579 C 163.771 88.648,163.171 88.915,162.667 89.172 C 162.162 89.430,160.512 90.245,159.000 90.984 C 156.019 92.441,151.005 95.036,150.333 95.470 C 150.104 95.618,149.392 96.011,148.750 96.344 C 146.659 97.430,145.253 98.194,145.076 98.341 C 144.980 98.420,144.380 98.753,143.742 99.082 C 143.105 99.411,141.871 100.084,141.000 100.579 C 140.129 101.074,138.929 101.739,138.333 102.057 C 137.737 102.375,136.976 102.822,136.642 103.051 C 136.308 103.279,135.859 103.522,135.645 103.590 C 135.431 103.658,135.067 103.841,134.837 103.997 C 133.657 104.795,133.053 105.167,132.938 105.167 C 132.867 105.167,132.254 105.504,131.575 105.917 C 130.895 106.329,130.281 106.668,130.211 106.670 C 130.141 106.672,129.565 107.010,128.931 107.420 C 128.297 107.831,127.717 108.167,127.643 108.167 C 127.568 108.167,127.076 108.448,126.551 108.792 C 126.025 109.135,125.238 109.604,124.802 109.833 C 123.560 110.486,121.475 111.695,120.833 112.134 C 120.513 112.354,120.100 112.592,119.917 112.664 C 119.569 112.800,117.470 114.036,115.750 115.116 C 115.200 115.462,114.563 115.821,114.333 115.914 C 114.104 116.007,113.489 116.365,112.966 116.709 C 112.444 117.052,111.949 117.333,111.866 117.333 C 111.784 117.333,111.417 117.550,111.052 117.815 C 110.686 118.080,109.868 118.575,109.235 118.915 C 108.602 119.255,107.845 119.713,107.553 119.933 C 107.261 120.153,106.948 120.333,106.856 120.333 C 106.765 120.333,106.104 120.696,105.387 121.139 C 103.246 122.463,102.278 123.039,101.750 123.305 C 101.475 123.443,100.835 123.829,100.327 124.163 C 99.820 124.497,99.287 124.815,99.144 124.870 C 99.000 124.926,98.346 125.315,97.690 125.735 C 97.033 126.156,96.434 126.500,96.357 126.500 C 96.280 126.500,95.917 126.717,95.552 126.982 C 95.186 127.247,94.368 127.742,93.735 128.082 C 93.102 128.422,92.345 128.880,92.053 129.100 C 91.761 129.320,91.460 129.500,91.383 129.500 C 91.307 129.500,90.983 129.675,90.664 129.889 C 90.344 130.103,89.558 130.562,88.917 130.909 C 88.275 131.256,87.638 131.634,87.500 131.750 C 87.362 131.866,86.725 132.243,86.083 132.588 C 85.442 132.934,84.621 133.430,84.259 133.691 C 83.897 133.953,83.549 134.167,83.485 134.167 C 83.308 134.167,79.994 136.187,79.315 136.708 C 78.987 136.960,78.661 137.167,78.591 137.167 C 78.521 137.167,77.980 137.504,77.390 137.917 C 76.800 138.329,76.278 138.667,76.230 138.667 C 76.182 138.667,75.670 139.004,75.092 139.417 C 74.514 139.829,73.994 140.167,73.936 140.167 C 73.742 140.167,72.449 141.166,72.220 141.492 C 72.044 141.743,67.769 144.653,62.885 147.845 C 62.109 148.353,58.558 150.730,58.083 151.060 C 57.808 151.251,56.833 151.902,55.917 152.506 C 54.029 153.749,54.009 153.762,51.784 155.293 C 50.886 155.911,49.858 156.604,49.500 156.833 C 49.142 157.063,48.080 157.775,47.141 158.417 C 46.201 159.058,45.197 159.733,44.908 159.917 C 44.620 160.100,43.567 160.813,42.568 161.500 C 41.568 162.188,40.515 162.900,40.227 163.083 C 39.939 163.267,38.940 163.942,38.007 164.583 C 37.073 165.225,36.071 165.888,35.780 166.058 C 35.488 166.227,35.100 166.497,34.917 166.659 C 34.733 166.820,33.758 167.494,32.750 168.156 C 31.742 168.818,30.729 169.499,30.500 169.670 C 30.271 169.841,29.183 170.588,28.083 171.331 C 26.983 172.073,25.033 173.390,23.750 174.257 C 22.467 175.124,20.524 176.435,19.432 177.172 C 18.341 177.908,17.103 178.752,16.682 179.047 C 16.261 179.342,15.796 179.658,15.648 179.750 C 15.501 179.842,14.563 180.479,13.565 181.167 C 12.567 181.854,11.516 182.567,11.229 182.750 C 10.942 182.933,10.154 183.456,9.478 183.911 C 8.803 184.366,8.221 184.758,8.186 184.780 C 8.151 184.803,8.097 185.181,8.066 185.619 C 8.035 186.058,7.969 186.679,7.921 187.000 C 7.872 187.321,7.792 188.483,7.744 189.583 C 7.695 190.683,7.354 194.808,6.986 198.750 C 6.351 205.555,5.949 211.172,6.088 211.310 C 6.172 211.394,7.666 210.447,7.666 210.310 C 7.667 210.251,7.835 210.160,8.042 210.107 C 8.248 210.054,8.627 209.814,8.883 209.574 C 9.140 209.334,9.630 208.976,9.972 208.777 C 10.671 208.372,12.156 207.365,13.290 206.526 C 13.705 206.220,14.245 205.845,14.491 205.693 C 14.737 205.541,15.656 204.929,16.532 204.333 C 17.409 203.737,19.129 202.583,20.355 201.768 C 21.581 200.953,22.744 200.141,22.941 199.964 C 23.137 199.787,23.521 199.516,23.794 199.363 C 24.067 199.209,25.064 198.558,26.009 197.917 C 26.955 197.275,27.958 196.612,28.239 196.442 C 28.520 196.273,28.900 196.004,29.083 195.845 C 29.267 195.686,30.392 194.907,31.583 194.114 C 32.775 193.322,34.500 192.164,35.417 191.542 C 36.333 190.920,37.317 190.262,37.602 190.081 C 39.779 188.692,41.333 187.610,41.333 187.484 C 41.333 187.401,41.440 187.333,41.571 187.333 C 41.701 187.333,42.170 187.057,42.612 186.719 C 43.055 186.381,43.567 186.022,43.750 185.921 C 44.403 185.561,47.089 183.777,47.417 183.485 C 47.600 183.322,47.938 183.087,48.167 182.962 C 48.848 182.592,52.065 180.458,52.307 180.216 C 52.431 180.093,52.768 179.870,53.057 179.720 C 53.347 179.571,53.959 179.179,54.418 178.849 C 54.876 178.520,55.514 178.108,55.834 177.934 C 56.155 177.761,56.567 177.484,56.750 177.320 C 56.933 177.156,57.271 176.920,57.500 176.796 C 57.729 176.671,58.667 176.067,59.583 175.453 C 63.024 173.148,64.289 172.329,65.000 171.946 C 65.321 171.773,65.733 171.494,65.917 171.327 C 66.100 171.159,66.438 170.921,66.667 170.797 C 66.896 170.673,67.525 170.274,68.064 169.911 C 68.604 169.547,69.166 169.175,69.314 169.083 C 69.634 168.885,72.073 167.341,73.250 166.592 C 73.708 166.300,74.626 165.710,75.290 165.281 C 75.953 164.851,76.541 164.500,76.597 164.500 C 76.652 164.500,77.121 164.212,77.640 163.859 C 78.719 163.125,80.798 161.857,81.465 161.525 C 81.713 161.402,82.292 161.056,82.750 160.758 C 83.208 160.459,84.071 159.938,84.667 159.600 C 85.262 159.263,86.388 158.604,87.167 158.136 C 87.946 157.668,88.958 157.084,89.417 156.838 C 89.875 156.592,90.625 156.164,91.083 155.887 C 92.763 154.873,93.940 154.187,94.917 153.652 C 95.467 153.351,96.250 152.894,96.658 152.636 C 97.065 152.378,97.457 152.167,97.529 152.167 C 97.601 152.167,98.072 151.903,98.576 151.581 C 99.080 151.258,99.668 150.928,99.884 150.846 C 100.263 150.702,102.222 149.503,102.607 149.180 C 102.712 149.092,102.827 149.049,102.862 149.084 C 102.897 149.120,103.224 148.970,103.588 148.752 C 104.242 148.361,106.218 147.262,108.000 146.299 C 108.504 146.026,109.339 145.548,109.855 145.235 C 110.371 144.922,110.849 144.667,110.917 144.667 C 110.984 144.667,111.462 144.412,111.978 144.101 C 112.494 143.789,113.517 143.216,114.250 142.826 C 115.823 141.990,116.958 141.376,119.333 140.078 C 120.296 139.552,121.721 138.791,122.500 138.387 C 124.205 137.504,126.337 136.381,127.250 135.886 C 127.617 135.688,128.404 135.284,129.000 134.989 C 129.596 134.694,130.202 134.351,130.346 134.226 C 130.491 134.102,130.696 134.000,130.803 134.000 C 130.909 134.000,131.606 133.662,132.351 133.250 C 133.097 132.837,133.794 132.500,133.900 132.500 C 134.006 132.500,134.240 132.397,134.421 132.271 C 134.756 132.037,138.708 130.064,141.417 128.778 C 142.242 128.387,143.649 127.714,144.544 127.283 C 145.439 126.852,146.243 126.500,146.330 126.500 C 146.417 126.500,147.259 126.125,148.199 125.667 C 149.140 125.208,150.010 124.833,150.132 124.833 C 150.254 124.833,150.743 124.653,151.219 124.432 C 152.548 123.815,153.560 123.429,155.917 122.641 L 158.083 121.917 162.250 121.918 C 166.803 121.920,167.016 121.953,170.000 123.122 C 173.188 124.370,175.210 126.877,174.680 128.923 C 174.585 129.286,174.363 130.113,174.186 130.761 C 173.783 132.234,173.345 135.139,173.244 137.000 C 173.202 137.779,173.056 139.917,172.918 141.750 C 172.597 146.050,172.334 150.902,172.333 152.542 C 172.333 153.455,172.272 153.838,172.125 153.851 C 172.010 153.860,171.317 153.895,170.583 153.929 C 169.014 154.000,166.403 154.364,163.500 154.917 C 162.354 155.136,161.137 155.355,160.795 155.406 C 159.864 155.543,158.811 155.792,156.777 156.356 C 155.768 156.636,154.699 156.896,154.401 156.933 C 154.104 156.970,153.236 157.214,152.472 157.477 C 151.708 157.739,150.633 158.083,150.083 158.241 C 148.088 158.813,146.898 159.206,145.963 159.599 C 145.439 159.819,144.884 160.000,144.730 160.000 C 144.575 160.000,143.606 160.337,142.574 160.750 C 141.543 161.162,140.610 161.500,140.500 161.500 C 140.390 161.500,140.064 161.606,139.775 161.736 C 138.289 162.405,137.494 162.729,136.613 163.024 C 136.080 163.203,135.111 163.608,134.461 163.924 C 133.810 164.241,133.184 164.500,133.069 164.500 C 132.954 164.500,132.137 164.843,131.252 165.262 C 130.367 165.681,129.514 166.048,129.357 166.079 C 129.199 166.109,128.323 166.487,127.410 166.919 C 125.643 167.754,124.650 168.220,122.250 169.336 C 120.552 170.126,109.768 175.514,107.543 176.684 C 101.687 179.764,100.305 180.509,99.813 180.853 C 99.573 181.021,99.184 181.232,98.949 181.321 C 98.713 181.411,98.020 181.788,97.410 182.159 C 96.799 182.530,96.234 182.833,96.154 182.833 C 96.074 182.833,95.463 183.162,94.796 183.564 C 93.313 184.458,92.412 184.972,91.000 185.729 C 90.404 186.049,89.507 186.578,89.006 186.905 C 88.505 187.232,88.025 187.500,87.940 187.500 C 87.855 187.500,87.311 187.800,86.730 188.167 C 86.150 188.533,85.634 188.833,85.583 188.833 C 85.533 188.833,85.025 189.122,84.454 189.475 C 83.884 189.828,82.929 190.394,82.333 190.732 C 80.297 191.888,78.429 193.013,78.173 193.237 C 78.032 193.360,77.729 193.518,77.500 193.588 C 77.271 193.657,76.858 193.882,76.583 194.086 C 76.308 194.291,75.636 194.704,75.089 195.004 C 74.542 195.304,73.800 195.764,73.439 196.025 C 73.078 196.286,72.720 196.500,72.643 196.500 C 72.566 196.500,71.977 196.838,71.333 197.250 C 70.690 197.662,70.101 198.000,70.025 198.000 C 69.950 198.000,69.482 198.287,68.985 198.637 C 68.489 198.987,67.596 199.551,67.000 199.890 C 66.404 200.229,65.204 200.957,64.333 201.508 C 63.462 202.060,62.637 202.557,62.500 202.613 C 62.362 202.670,62.025 202.880,61.750 203.080 C 61.475 203.280,60.688 203.767,60.000 204.162 C 59.313 204.557,58.611 205.001,58.442 205.148 C 58.272 205.296,57.846 205.567,57.494 205.750 C 56.555 206.240,54.018 207.803,53.411 208.266 C 53.122 208.486,52.825 208.667,52.752 208.667 C 52.592 208.667,50.845 209.807,50.530 210.117 C 50.409 210.236,50.215 210.333,50.099 210.333 C 49.983 210.333,49.469 210.633,48.957 211.000 C 48.445 211.367,47.984 211.667,47.933 211.667 C 47.882 211.667,47.420 211.948,46.906 212.292 C 46.392 212.635,45.757 213.036,45.495 213.183 C 44.970 213.476,43.340 214.497,41.667 215.582 C 40.740 216.182,39.754 216.798,38.250 217.713 C 38.067 217.824,37.504 218.181,37.000 218.505 C 36.496 218.829,35.558 219.415,34.917 219.806 C 33.260 220.816,33.213 220.845,32.074 221.583 C 30.161 222.823,28.951 223.582,28.433 223.866 C 28.149 224.022,27.842 224.213,27.750 224.292 C 27.658 224.371,26.991 224.795,26.268 225.234 C 25.545 225.673,24.652 226.250,24.285 226.516 C 23.917 226.782,23.558 227.000,23.486 227.000 C 23.413 227.000,22.861 227.338,22.259 227.750 C 21.656 228.163,21.095 228.500,21.011 228.500 C 20.927 228.500,20.647 228.676,20.388 228.891 C 20.129 229.106,19.256 229.687,18.449 230.183 C 17.642 230.678,16.619 231.308,16.175 231.583 C 15.732 231.858,14.780 232.446,14.060 232.889 C 13.339 233.331,12.501 233.856,12.196 234.055 C 9.576 235.764,8.931 236.167,8.816 236.167 C 8.743 236.167,8.200 236.504,7.610 236.917 C 7.020 237.329,6.489 237.667,6.430 237.667 C 6.371 237.667,5.810 238.004,5.184 238.417 C 4.558 238.829,3.976 239.167,3.892 239.167 C 3.807 239.167,3.493 239.373,3.194 239.625 L 2.650 240.083 2.156 244.496 C 1.884 246.922,1.620 249.585,1.569 250.412 C 1.518 251.240,1.258 253.838,0.992 256.186 C 0.726 258.534,0.466 260.964,0.415 261.586 C 0.364 262.208,0.289 262.770,0.248 262.836 C 0.127 263.033,-0.043 267.500,0.072 267.500 C 0.130 267.500,0.777 267.069,1.510 266.542 C 2.242 266.015,3.234 265.302,3.713 264.957 C 4.699 264.248,6.249 263.161,7.812 262.081 C 8.396 261.678,9.020 261.216,9.198 261.055 C 9.377 260.893,9.772 260.609,10.078 260.422 C 11.057 259.825,13.232 258.295,13.797 257.806 C 14.099 257.546,14.446 257.333,14.569 257.333 C 14.692 257.333,14.888 257.218,15.005 257.077 C 15.122 256.936,15.825 256.419,16.567 255.928 C 17.310 255.438,18.097 254.878,18.317 254.685 C 18.537 254.492,18.787 254.333,18.871 254.333 C 18.956 254.333,19.451 254.013,19.971 253.621 C 21.130 252.748,22.720 251.669,23.345 251.333 C 23.600 251.196,24.013 250.906,24.262 250.689 C 24.511 250.471,24.985 250.137,25.316 249.945 C 25.646 249.753,26.341 249.293,26.861 248.923 C 27.712 248.316,28.116 248.050,29.911 246.917 C 30.201 246.733,30.843 246.284,31.337 245.919 C 31.831 245.553,32.501 245.112,32.826 244.938 C 33.151 244.764,33.678 244.407,33.996 244.144 C 34.315 243.882,34.637 243.667,34.712 243.667 C 34.786 243.667,35.276 243.349,35.799 242.961 C 36.322 242.573,36.953 242.141,37.201 242.003 C 37.449 241.864,38.199 241.382,38.868 240.931 C 40.642 239.736,43.531 237.859,45.250 236.783 C 46.075 236.267,47.050 235.625,47.417 235.356 C 47.783 235.087,48.383 234.702,48.750 234.499 C 49.117 234.297,49.773 233.877,50.209 233.566 C 50.644 233.255,51.050 233.000,51.110 233.000 C 51.170 233.000,51.713 232.674,52.318 232.276 C 53.375 231.580,54.648 230.767,57.183 229.167 C 57.837 228.754,58.832 228.112,59.394 227.740 C 59.957 227.368,60.549 227.014,60.712 226.953 C 60.874 226.891,61.451 226.539,61.994 226.171 C 62.537 225.802,63.024 225.500,63.076 225.500 C 63.128 225.500,63.788 225.097,64.543 224.605 C 65.878 223.736,67.058 223.011,67.970 222.500 C 68.216 222.362,68.921 221.931,69.538 221.541 C 70.154 221.152,70.702 220.833,70.755 220.833 C 70.808 220.833,71.279 220.544,71.801 220.191 C 72.323 219.837,73.012 219.415,73.333 219.252 C 73.654 219.088,74.292 218.717,74.750 218.425 C 76.383 217.387,78.178 216.333,78.313 216.333 C 78.388 216.333,78.751 216.115,79.119 215.849 C 79.487 215.582,80.305 215.083,80.936 214.739 C 81.567 214.395,82.397 213.900,82.780 213.640 C 83.163 213.380,83.532 213.167,83.599 213.167 C 83.667 213.167,84.264 212.829,84.925 212.417 C 85.587 212.004,86.196 211.667,86.278 211.667 C 86.360 211.667,86.949 211.330,87.588 210.918 C 88.227 210.506,88.810 210.168,88.883 210.168 C 88.956 210.167,89.426 209.905,89.926 209.584 C 90.427 209.264,91.417 208.698,92.127 208.327 C 94.158 207.263,95.883 206.326,96.294 206.063 C 96.502 205.931,97.214 205.536,97.878 205.185 C 98.541 204.835,99.683 204.224,100.417 203.828 C 104.473 201.636,116.007 195.850,119.500 194.256 C 120.646 193.733,122.277 192.974,123.124 192.569 C 123.971 192.164,124.736 191.833,124.823 191.833 C 124.909 191.833,125.603 191.540,126.365 191.182 C 127.127 190.824,128.162 190.381,128.667 190.199 C 129.171 190.016,130.108 189.640,130.750 189.363 C 132.750 188.501,134.404 187.887,139.250 186.207 C 150.342 182.362,159.730 181.453,164.667 183.746 C 166.096 184.410,168.667 186.286,168.667 186.664 C 168.667 186.732,168.901 187.079,169.186 187.435 C 172.229 191.229,172.916 201.293,170.970 213.583 C 169.838 220.729,169.907 223.623,171.263 225.854 C 172.332 227.615,173.469 228.396,176.000 229.110 C 177.981 229.669,183.281 229.171,189.083 227.880 C 190.550 227.554,192.125 227.213,192.583 227.123 C 193.042 227.033,194.579 226.642,196.000 226.254 C 197.421 225.866,198.958 225.460,199.417 225.350 C 199.875 225.241,201.225 224.852,202.417 224.485 C 208.488 222.617,209.551 222.283,211.167 221.730 C 212.129 221.401,213.424 220.988,214.045 220.814 C 214.666 220.639,215.828 220.247,216.628 219.943 C 217.429 219.639,218.646 219.201,219.333 218.970 C 222.395 217.941,225.009 216.990,225.250 216.818 C 225.342 216.752,225.857 216.571,226.395 216.415 C 226.932 216.259,227.907 215.909,228.561 215.636 C 229.215 215.363,230.350 214.930,231.083 214.673 C 231.817 214.417,232.930 213.973,233.557 213.687 C 234.184 213.401,234.794 213.167,234.911 213.167 C 235.117 213.167,235.760 212.905,237.630 212.063 C 238.114 211.845,238.592 211.667,238.693 211.667 C 238.874 211.667,241.080 210.775,244.250 209.420 C 246.627 208.405,247.895 207.872,249.417 207.251 C 250.150 206.951,251.263 206.472,251.891 206.186 C 252.518 205.901,253.095 205.667,253.173 205.667 C 253.251 205.667,254.013 205.330,254.866 204.918 C 255.719 204.506,256.492 204.167,256.583 204.166 C 256.675 204.165,257.525 203.790,258.473 203.332 C 259.421 202.874,260.246 202.500,260.307 202.500 C 260.412 202.501,262.642 201.493,264.750 200.492 C 265.300 200.231,266.200 199.821,266.750 199.580 C 267.300 199.339,268.275 198.893,268.917 198.588 C 269.558 198.283,270.833 197.686,271.750 197.261 C 272.667 196.837,274.092 196.162,274.917 195.762 C 280.581 193.016,283.181 191.747,283.833 191.410 C 284.246 191.196,284.921 190.855,285.333 190.651 C 285.746 190.447,286.533 190.052,287.083 189.774 C 287.633 189.495,288.308 189.157,288.583 189.022 C 289.780 188.435,294.158 186.214,294.500 186.021 C 294.637 185.943,295.275 185.614,295.917 185.289 C 296.558 184.965,297.646 184.403,298.333 184.040 C 299.021 183.677,300.633 182.834,301.917 182.168 C 303.200 181.501,304.662 180.715,305.167 180.421 C 305.671 180.127,306.383 179.737,306.750 179.555 C 307.117 179.372,308.204 178.787,309.167 178.254 C 310.129 177.722,311.554 176.948,312.333 176.536 C 313.112 176.123,313.929 175.647,314.147 175.476 C 314.366 175.306,314.624 175.167,314.721 175.167 C 314.818 175.167,315.427 174.851,316.074 174.466 C 317.282 173.747,317.924 173.391,320.033 172.271 C 320.703 171.915,321.438 171.493,321.667 171.332 C 321.896 171.171,322.608 170.756,323.250 170.411 C 323.892 170.066,324.649 169.607,324.932 169.392 C 325.216 169.176,325.512 169.000,325.589 169.000 C 325.667 169.000,326.260 168.684,326.907 168.298 C 327.554 167.912,328.358 167.443,328.694 167.256 C 329.993 166.534,331.075 165.889,332.133 165.208 C 332.739 164.819,333.293 164.500,333.365 164.500 C 333.438 164.500,334.023 164.162,334.667 163.750 C 335.310 163.337,335.900 163.000,335.977 163.000 C 336.054 163.000,336.412 162.786,336.772 162.525 C 337.133 162.264,337.875 161.804,338.422 161.502 C 338.969 161.201,339.713 160.740,340.075 160.477 C 340.436 160.215,340.794 160.000,340.870 160.000 C 340.946 160.000,341.574 159.625,342.266 159.167 C 342.958 158.708,343.583 158.333,343.654 158.333 C 343.725 158.333,344.077 158.120,344.436 157.860 C 344.796 157.600,345.463 157.180,345.920 156.926 C 346.376 156.673,347.106 156.211,347.542 155.899 C 347.978 155.588,348.383 155.333,348.443 155.333 C 348.554 155.333,350.153 154.331,352.100 153.042 C 352.689 152.652,353.204 152.333,353.246 152.333 C 353.362 152.333,355.790 150.767,356.856 150.005 C 357.372 149.636,357.848 149.333,357.913 149.333 C 358.025 149.333,360.192 147.940,361.833 146.813 C 362.590 146.293,364.277 145.199,365.271 144.583 C 366.622 143.747,369.255 141.935,369.306 141.808 C 369.336 141.730,369.462 141.667,369.584 141.667 C 369.707 141.667,370.146 141.409,370.559 141.093 C 370.973 140.777,371.791 140.216,372.378 139.845 L 373.445 139.171 373.728 137.377 C 373.884 136.391,374.346 133.776,374.756 131.568 C 375.165 129.359,375.500 127.372,375.500 127.151 C 375.500 126.930,375.801 125.212,376.168 123.333 C 376.535 121.454,376.910 119.317,377.001 118.583 C 377.091 117.850,377.391 116.125,377.667 114.750 C 377.942 113.375,378.253 111.650,378.356 110.917 C 378.460 110.183,378.872 107.862,379.272 105.759 C 379.672 103.655,380.000 101.668,380.001 101.342 C 380.001 101.016,380.072 100.487,380.157 100.167 C 380.243 99.846,380.356 99.283,380.410 98.917 C 380.464 98.550,380.549 98.119,380.598 97.958 C 380.692 97.656,380.270 97.531,380.098 97.810 C 380.049 97.889,379.351 98.391,378.546 98.927 C 377.742 99.462,376.938 100.035,376.760 100.200 C 376.583 100.365,376.344 100.500,376.230 100.500 C 376.117 100.500,375.917 100.607,375.786 100.738 C 375.655 100.868,374.994 101.329,374.316 101.762 C 373.638 102.195,372.931 102.685,372.745 102.852 C 372.559 103.019,372.105 103.327,371.736 103.536 C 371.367 103.745,370.290 104.442,369.342 105.083 C 368.395 105.725,367.382 106.400,367.091 106.583 C 366.598 106.894,363.662 108.870,362.917 109.391 C 362.118 109.951,358.576 112.282,358.023 112.612 C 357.690 112.812,357.342 113.040,357.250 113.119 C 356.902 113.421,355.518 114.333,355.409 114.333 C 355.346 114.333,354.872 114.638,354.356 115.011 C 353.400 115.700,349.737 118.144,348.752 118.750 C 347.865 119.295,346.592 120.215,346.461 120.406 C 346.394 120.503,346.337 120.521,346.336 120.444 C 346.334 120.367,345.851 120.648,345.262 121.069 C 344.672 121.489,344.148 121.833,344.096 121.833 C 344.044 121.833,343.495 122.190,342.876 122.626 C 342.257 123.061,341.540 123.526,341.284 123.658 C 341.028 123.790,340.528 124.146,340.174 124.449 C 339.820 124.752,339.466 125.000,339.388 125.000 C 339.197 125.000,337.432 126.186,337.361 126.362 C 337.331 126.438,337.207 126.500,337.086 126.500 C 336.965 126.500,336.417 126.838,335.869 127.250 C 335.320 127.663,334.802 128.000,334.719 128.000 C 334.635 128.000,334.103 128.337,333.536 128.750 C 332.969 129.162,332.448 129.501,332.378 129.502 C 332.307 129.503,331.801 129.840,331.253 130.252 C 330.705 130.663,330.214 131.000,330.161 131.000 C 330.065 131.000,327.090 132.921,326.352 133.460 C 326.133 133.619,325.707 133.900,325.405 134.083 C 324.262 134.777,322.067 136.186,321.667 136.482 C 320.800 137.122,318.359 138.667,318.213 138.667 C 318.129 138.667,317.765 138.910,317.405 139.208 C 317.045 139.506,316.487 139.894,316.167 140.071 C 315.846 140.247,315.117 140.697,314.548 141.071 C 313.978 141.444,312.976 142.087,312.320 142.500 C 311.664 142.912,310.648 143.569,310.062 143.958 C 309.476 144.348,308.948 144.667,308.889 144.667 C 308.784 144.667,307.666 145.384,305.211 147.027 C 304.547 147.470,303.957 147.833,303.900 147.833 C 303.842 147.833,303.297 148.158,302.689 148.556 C 301.500 149.333,301.134 149.556,299.083 150.760 C 298.350 151.191,297.637 151.638,297.500 151.755 C 297.362 151.871,296.818 152.198,296.291 152.481 C 295.764 152.765,295.014 153.200,294.624 153.449 C 294.235 153.698,293.816 153.918,293.694 153.938 C 293.571 153.958,293.196 154.160,292.861 154.386 C 292.525 154.613,291.200 155.343,289.917 156.009 C 288.633 156.675,286.533 157.777,285.250 158.457 C 283.967 159.137,282.392 159.952,281.750 160.268 C 281.108 160.584,280.283 161.004,279.917 161.202 C 279.289 161.541,278.656 161.862,277.083 162.643 C 276.717 162.825,276.042 163.162,275.583 163.393 C 275.125 163.623,274.450 163.961,274.083 164.144 C 273.717 164.326,272.967 164.708,272.417 164.991 C 271.867 165.274,270.554 165.919,269.500 166.423 C 268.446 166.928,266.833 167.706,265.917 168.154 C 265.000 168.601,263.350 169.391,262.250 169.911 C 261.150 170.430,259.650 171.143,258.917 171.494 C 255.754 173.011,254.337 173.667,254.214 173.669 C 254.142 173.670,253.333 174.044,252.417 174.500 C 251.500 174.956,250.675 175.331,250.583 175.333 C 250.492 175.335,249.742 175.674,248.918 176.085 C 248.094 176.497,247.336 176.833,247.235 176.833 C 247.134 176.833,246.421 177.141,245.651 177.517 C 244.881 177.894,244.130 178.225,243.982 178.253 C 243.834 178.282,243.196 178.547,242.565 178.842 C 241.933 179.138,241.042 179.510,240.583 179.670 C 240.125 179.830,239.098 180.270,238.302 180.647 C 237.505 181.025,236.782 181.333,236.695 181.333 C 236.608 181.333,235.760 181.670,234.810 182.081 C 233.860 182.492,232.992 182.829,232.880 182.831 C 232.768 182.832,232.281 183.012,231.797 183.230 C 229.952 184.061,229.285 184.333,229.094 184.333 C 228.985 184.333,227.976 184.708,226.850 185.167 C 225.724 185.625,224.707 186.000,224.589 186.000 C 224.471 186.000,223.745 186.254,222.974 186.565 C 222.203 186.876,221.163 187.241,220.661 187.376 C 220.160 187.512,218.963 187.893,218.000 188.223 C 215.549 189.065,211.482 190.329,210.902 190.430 C 210.635 190.477,209.142 190.843,207.583 191.245 C 198.830 193.501,191.686 194.013,187.924 192.655 C 187.461 192.488,186.758 192.233,186.360 192.088 C 184.315 191.343,182.567 189.139,182.227 186.876 C 181.724 183.533,182.114 177.431,183.259 170.713 C 183.575 168.860,183.833 167.135,183.833 166.880 C 183.833 166.363,184.730 162.048,184.865 161.912 C 184.913 161.865,185.394 161.747,185.934 161.650 C 188.224 161.241,194.594 159.720,198.667 158.610 C 199.171 158.473,200.146 158.212,200.833 158.031 C 205.315 156.850,214.928 153.757,220.500 151.703 C 221.371 151.382,222.308 151.045,222.583 150.953 C 223.505 150.646,226.898 149.315,228.870 148.487 C 229.944 148.036,230.900 147.667,230.994 147.667 C 231.088 147.667,231.916 147.329,232.833 146.917 C 233.751 146.504,234.572 146.167,234.659 146.167 C 234.745 146.167,235.513 145.830,236.366 145.418 C 237.219 145.006,237.992 144.668,238.083 144.668 C 238.175 144.667,239.000 144.321,239.917 143.897 C 240.833 143.474,242.408 142.757,243.417 142.304 C 244.425 141.850,245.775 141.230,246.417 140.925 C 247.058 140.620,248.296 140.032,249.167 139.617 C 252.562 138.001,259.059 134.755,261.917 133.247 C 269.571 129.208,270.936 128.466,271.193 128.208 C 271.307 128.094,271.518 128.000,271.661 128.000 C 271.805 128.000,272.184 127.824,272.503 127.610 C 272.822 127.395,273.673 126.900,274.395 126.508 C 275.116 126.117,275.953 125.636,276.254 125.440 C 276.780 125.098,278.045 124.383,280.230 123.195 C 280.791 122.890,281.489 122.459,281.781 122.237 C 282.072 122.015,282.386 121.833,282.477 121.833 C 282.568 121.833,283.230 121.468,283.947 121.022 C 285.361 120.142,286.600 119.395,287.304 118.998 C 287.549 118.859,288.237 118.447,288.833 118.083 C 289.429 117.718,290.179 117.268,290.500 117.084 C 291.222 116.669,292.332 115.982,293.889 114.985 C 295.509 113.948,297.067 112.994,297.885 112.539 C 298.258 112.331,298.681 112.059,298.823 111.934 C 298.966 111.810,299.683 111.346,300.417 110.905 C 301.150 110.463,301.825 110.036,301.917 109.955 C 302.008 109.874,302.359 109.645,302.696 109.446 C 303.947 108.705,306.419 107.115,306.500 106.999 C 306.546 106.932,306.883 106.718,307.250 106.522 C 307.617 106.326,308.104 106.024,308.333 105.850 C 308.734 105.547,310.645 104.277,311.743 103.583 C 312.033 103.400,313.045 102.725,313.992 102.083 C 314.939 101.442,315.952 100.767,316.242 100.583 C 316.533 100.400,317.546 99.725,318.495 99.083 C 319.443 98.442,320.497 97.729,320.837 97.500 C 321.177 97.271,322.221 96.558,323.157 95.917 C 324.093 95.275,325.114 94.595,325.427 94.406 C 325.740 94.216,326.166 93.910,326.373 93.725 C 326.580 93.539,327.295 93.032,327.961 92.596 C 328.627 92.161,329.265 91.717,329.378 91.610 C 329.491 91.504,329.781 91.315,330.023 91.190 C 330.264 91.066,330.752 90.711,331.106 90.402 C 331.460 90.093,331.812 89.838,331.888 89.837 C 331.963 89.835,332.464 89.496,333.000 89.083 C 333.536 88.671,334.023 88.333,334.082 88.333 C 334.208 88.333,335.342 87.517,335.583 87.253 C 335.675 87.152,335.988 86.923,336.280 86.743 C 337.287 86.122,340.084 84.116,340.139 83.975 C 340.169 83.897,340.271 83.833,340.365 83.833 C 340.459 83.833,341.007 83.458,341.583 83.000 C 342.159 82.542,342.672 82.167,342.723 82.167 C 342.774 82.167,343.293 81.810,343.877 81.375 C 345.196 80.391,346.473 79.470,346.820 79.250 C 346.965 79.158,347.471 78.783,347.944 78.417 C 348.417 78.050,349.497 77.262,350.343 76.667 C 351.189 76.071,352.124 75.377,352.421 75.125 C 352.718 74.873,353.031 74.667,353.117 74.667 C 353.203 74.667,353.531 74.434,353.845 74.149 C 354.159 73.864,354.604 73.509,354.833 73.360 C 355.183 73.132,356.885 71.875,359.612 69.833 C 359.918 69.604,360.487 69.193,360.876 68.920 C 361.900 68.201,363.074 67.270,363.139 67.125 C 363.169 67.056,363.274 67.000,363.371 67.000 C 363.468 67.000,363.942 66.662,364.425 66.250 C 364.908 65.837,365.367 65.500,365.445 65.500 C 365.523 65.500,365.789 65.312,366.036 65.083 C 366.284 64.854,366.733 64.496,367.035 64.287 C 368.274 63.432,370.778 61.518,370.985 61.268 C 371.107 61.121,371.297 61.000,371.405 61.000 C 371.514 61.000,371.824 60.785,372.093 60.523 C 372.363 60.261,372.893 59.829,373.271 59.565 C 373.650 59.300,374.693 58.521,375.589 57.833 C 376.485 57.146,377.466 56.396,377.768 56.167 C 379.862 54.579,382.805 52.328,383.083 52.103 C 383.267 51.954,383.743 51.589,384.143 51.291 C 384.542 50.994,385.153 50.525,385.499 50.250 C 385.846 49.975,386.606 49.387,387.190 48.943 C 388.510 47.938,388.375 48.241,388.901 45.083 C 389.145 43.617,389.535 41.367,389.767 40.083 C 389.999 38.800,390.338 36.850,390.521 35.750 C 390.703 34.650,391.158 32.100,391.532 30.083 C 391.905 28.067,392.264 25.929,392.329 25.333 C 392.393 24.738,392.752 22.600,393.125 20.583 C 393.499 18.567,393.919 16.204,394.059 15.333 C 394.199 14.463,394.547 12.438,394.832 10.833 C 395.817 5.284,396.393 2.079,396.592 1.042 C 396.805 -0.063,396.421 -0.458,395.828 0.256 " stroke="none" fill="#bc2c36" fill-rule="evenodd"></path><path id="path2" d="M174.705 128.167 C 174.705 128.487,174.740 128.619,174.782 128.458 C 174.823 128.298,174.823 128.035,174.782 127.875 C 174.740 127.715,174.705 127.846,174.705 128.167 M71.120 142.237 C 70.136 142.918,69.902 143.156,70.628 142.738 C 71.187 142.416,72.148 141.676,72.000 141.682 C 71.954 141.684,71.558 141.933,71.120 142.237 M68.367 144.072 C 67.593 144.619,67.484 144.775,68.138 144.401 C 68.443 144.226,68.771 143.990,68.867 143.875 C 69.113 143.581,68.997 143.626,68.367 144.072 M66.120 145.570 C 65.136 146.251,64.902 146.490,65.628 146.072 C 66.187 145.749,67.148 145.009,67.000 145.015 C 66.954 145.017,66.558 145.267,66.120 145.570 M63.867 147.072 C 63.093 147.619,62.984 147.775,63.638 147.401 C 63.943 147.226,64.271 146.990,64.367 146.875 C 64.613 146.581,64.497 146.626,63.867 147.072 M59.367 150.072 C 58.593 150.619,58.484 150.775,59.138 150.401 C 59.443 150.226,59.771 149.990,59.867 149.875 C 60.113 149.581,59.997 149.626,59.367 150.072 M56.867 151.738 C 56.093 152.286,55.984 152.442,56.638 152.068 C 56.943 151.893,57.271 151.656,57.367 151.542 C 57.613 151.247,57.497 151.293,56.867 151.738 M49.790 156.486 C 49.105 156.925,49.011 157.079,49.614 156.772 C 49.907 156.624,50.192 156.427,50.249 156.335 C 50.383 156.118,50.343 156.131,49.790 156.486 M45.083 159.667 C 44.808 159.849,44.658 159.997,44.750 159.995 C 44.917 159.993,45.823 159.343,45.667 159.338 C 45.621 159.337,45.358 159.485,45.083 159.667 M39.083 163.765 L 38.583 164.194 39.125 163.836 C 39.423 163.639,39.667 163.445,39.667 163.405 C 39.667 163.281,39.596 163.324,39.083 163.765 M34.367 166.905 C 33.593 167.452,33.484 167.609,34.138 167.234 C 34.443 167.060,34.771 166.823,34.867 166.708 C 35.113 166.414,34.997 166.459,34.367 166.905 M32.917 167.931 L 32.417 168.361 32.958 168.002 C 33.256 167.805,33.500 167.612,33.500 167.572 C 33.500 167.447,33.429 167.491,32.917 167.931 M29.833 170.015 C 29.557 170.241,29.529 170.298,29.750 170.183 C 30.294 169.902,30.595 169.672,30.417 169.673 C 30.325 169.674,30.063 169.827,29.833 170.015 M28.250 171.098 L 27.750 171.528 28.292 171.169 C 28.590 170.972,28.833 170.778,28.833 170.739 C 28.833 170.614,28.763 170.657,28.250 171.098 M27.042 171.853 C 26.474 172.216,26.290 172.461,26.792 172.185 C 27.174 171.975,27.773 171.511,27.667 171.508 C 27.621 171.507,27.340 171.662,27.042 171.853 M25.589 172.853 C 24.714 173.511,24.632 173.620,25.303 173.234 C 25.776 172.963,26.520 172.311,26.317 172.345 C 26.280 172.351,25.953 172.580,25.589 172.853 M23.286 174.403 C 22.303 175.084,22.069 175.323,22.794 174.905 C 23.354 174.583,24.315 173.843,24.167 173.849 C 24.121 173.850,23.725 174.100,23.286 174.403 M20.867 176.072 C 20.093 176.619,19.984 176.775,20.638 176.401 C 20.943 176.226,21.271 175.990,21.367 175.875 C 21.613 175.581,21.497 175.626,20.867 176.072 M18.208 177.853 C 17.640 178.216,17.456 178.461,17.958 178.185 C 18.341 177.975,18.940 177.511,18.833 177.508 C 18.787 177.507,18.506 177.662,18.208 177.853 M16.171 179.258 C 15.853 179.483,15.666 179.666,15.755 179.666 C 15.844 179.665,16.142 179.481,16.417 179.255 C 17.059 178.729,16.919 178.731,16.171 179.258 M14.750 180.265 L 14.250 180.694 14.792 180.336 C 15.090 180.139,15.333 179.945,15.333 179.905 C 15.333 179.781,15.263 179.824,14.750 180.265 M172.042 201.417 C 172.044 201.783,172.078 201.914,172.118 201.706 C 172.158 201.499,172.156 201.199,172.115 201.040 C 172.073 200.880,172.040 201.050,172.042 201.417 " stroke="none" fill="#bb343b" fill-rule="evenodd"></path><path id="path3" d="" stroke="none" fill="#4c4c84" fill-rule="evenodd"></path><path id="path4" d="" stroke="none" fill="#6d4973" fill-rule="evenodd"></path></g></svg>